<svg width="20" height="20" viewBox="0 0 20 20" fill="none" xmlns="http://www.w3.org/2000/svg">
<path fill-rule="evenodd" clip-rule="evenodd" d="M18.4558 18.4558C19.2369 17.6748 19.2369 16.4085 18.4558 15.6274L12.799 9.97056L18.4558 4.31371C19.2369 3.53264 19.2369 2.26632 18.4558 1.48528C17.6748 0.704225 16.4085 0.70421 15.6274 1.48528L9.97056 7.14213L4.31371 1.48528C3.53266 0.704232 2.26633 0.704239 1.48529 1.48528C0.704244 2.26632 0.704237 3.53266 1.48529 4.31371L7.14214 9.97056L1.48528 15.6274C0.704229 16.4085 0.704222 17.6748 1.48528 18.4558C2.26632 19.2369 3.53265 19.2369 4.3137 18.4558L9.97056 12.799L15.6274 18.4558C16.4085 19.2369 17.6748 19.2369 18.4558 18.4558Z" fill="#0D7377"/>
</svg>
