<svg width="50" height="50" viewBox="0 0 50 50" fill="none" xmlns="http://www.w3.org/2000/svg">
<path fill-rule="evenodd" clip-rule="evenodd" d="M21.3712 0C15.3628 0.612308 9.96687 3.21495 5.89935 7.11458V14.0652H21.3812L21.3712 0ZM0 34.0735C3.77296 43.3974 13.1463 50 24.1122 50C24.9998 50 25.877 49.9567 26.7416 49.8723C25.1967 49.266 23.8841 48.5622 22.8038 47.7609L25.6179 41.7159C27.1529 42.7729 28.9608 43.6483 31.0416 44.342C33.1565 45.0026 35.2884 45.333 37.4374 45.333C38.099 45.333 38.7077 45.3087 39.2635 45.2601C41.1111 43.9666 42.7754 42.4426 44.2114 40.7317C44.0419 40.2148 43.7112 39.7831 43.2192 39.4366C42.4688 38.8751 41.4796 38.4291 40.2516 38.0988C39.0236 37.7354 37.6591 37.4051 36.1582 37.1078C34.6915 36.7775 33.2076 36.3811 31.7068 35.9187C30.24 35.4562 28.8926 34.8616 27.6646 34.1349C27.6304 34.1146 27.5963 34.0942 27.5624 34.0735H21.3955L21.3858 20.5302H5.89935V34.0735H0ZM48.4031 33.6187C49.4359 30.9118 50 27.985 50 24.9306C50 23.9088 49.9369 22.9012 49.8142 21.9114L48.4894 25.0674C46.8179 24.1425 45.1465 23.4653 43.4751 23.0359C41.8036 22.5735 40.1663 22.3422 38.5631 22.3422C36.9599 22.3422 35.6466 22.5239 34.6232 22.8873C33.5999 23.2506 32.8665 23.7296 32.4231 24.3242C31.9796 24.8857 31.7579 25.5464 31.7579 26.3061C31.7579 27.198 32.1331 27.9247 32.8836 28.4863C33.634 29.0148 34.6232 29.4443 35.8512 29.7746C37.0792 30.1049 38.4266 30.4352 39.8934 30.7656C41.3943 31.0959 42.8781 31.4758 44.3449 31.9052C45.8315 32.3305 47.1842 32.9017 48.4031 33.6187ZM48.9654 17.8911C46.2947 9.03395 38.7122 2.20578 29.2657 0.35792L29.2782 17.8072C29.5655 17.6606 29.8633 17.5206 30.1718 17.3873C32.4231 16.3964 35.2372 15.9009 38.6142 15.9009C40.8656 15.9009 43.0828 16.1651 45.2659 16.6936C46.5937 16.995 47.8269 17.3942 48.9654 17.8911Z" fill="url(#paint0_linear_104_340)"/>
<defs>
<linearGradient id="paint0_linear_104_340" x1="50" y1="30.2198" x2="-0.557594" y2="30.1423" gradientUnits="userSpaceOnUse">
<stop stop-color="#0D7377"/>
<stop offset="1" stop-color="#B6EADA"/>
</linearGradient>
</defs>
</svg>
