<svg width="26" height="25" viewBox="0 0 26 25" fill="none" xmlns="http://www.w3.org/2000/svg">
<path d="M9.00401 3.29837C10.2618 -0.572631 15.7382 -0.572631 16.996 3.29837C17.5585 5.02954 19.1717 6.20163 20.992 6.20163C25.0622 6.20163 26.7545 11.41 23.4616 13.8024C21.989 14.8724 21.3728 16.7688 21.9353 18.5C23.1931 22.371 18.7625 25.59 15.4697 23.1976C13.997 22.1276 12.003 22.1276 10.5303 23.1976C7.23747 25.59 2.80694 22.371 4.06471 18.5C4.6272 16.7688 4.011 14.8724 2.53838 13.8024C-0.754495 11.41 0.937817 6.20163 5.00803 6.20163C6.82829 6.20163 8.44153 5.02954 9.00401 3.29837Z" fill="#B6EADA"/>
</svg>
